<svg xmlns="http://www.w3.org/2000/svg" xmlns:xlink="http://www.w3.org/1999/xlink" width="500" zoomAndPan="magnify" viewBox="0 0 375 374.999991" height="500" preserveAspectRatio="xMidYMid meet" version="1.2"><defs><clipPath id="37034bcf74"><path d="M 124 124 L 250.902344 124 L 250.902344 250.902344 L 124 250.902344 Z M 124 124 "/></clipPath><clipPath id="b3d3bb3e05"><path d="M 141.347656 124.097656 L 233.652344 124.097656 C 238.226562 124.097656 242.613281 125.914062 245.851562 129.148438 C 249.085938 132.386719 250.902344 136.773438 250.902344 141.347656 L 250.902344 233.652344 C 250.902344 238.226562 249.085938 242.613281 245.851562 245.851562 C 242.613281 249.085938 238.226562 250.902344 233.652344 250.902344 L 141.347656 250.902344 C 136.773438 250.902344 132.386719 249.085938 129.148438 245.851562 C 125.914062 242.613281 124.097656 238.226562 124.097656 233.652344 L 124.097656 141.347656 C 124.097656 136.773438 125.914062 132.386719 129.148438 129.148438 C 132.386719 125.914062 136.773438 124.097656 141.347656 124.097656 Z M 141.347656 124.097656 "/></clipPath><clipPath id="a211b33acf"><path d="M 151.40625 151.40625 L 223.3125 151.40625 L 223.3125 223.3125 L 151.40625 223.3125 Z M 151.40625 151.40625 "/></clipPath><clipPath id="54d3cfad88"><path d="M 168.9375 151.6875 L 206.0625 151.6875 C 210.640625 151.6875 215.027344 153.503906 218.261719 156.738281 C 221.496094 159.972656 223.3125 164.359375 223.3125 168.9375 L 223.3125 206.0625 C 223.3125 210.640625 221.496094 215.027344 218.261719 218.261719 C 215.027344 221.496094 210.640625 223.3125 206.0625 223.3125 L 168.9375 223.3125 C 164.359375 223.3125 159.972656 221.496094 156.738281 218.261719 C 153.503906 215.027344 151.6875 210.640625 151.6875 206.0625 L 151.6875 168.9375 C 151.6875 164.359375 153.503906 159.972656 156.738281 156.738281 C 159.972656 153.503906 164.359375 151.6875 168.9375 151.6875 Z M 168.9375 151.6875 "/></clipPath></defs><g id="21c496c98e"><g clip-rule="nonzero" clip-path="url(#37034bcf74)"><g clip-rule="nonzero" clip-path="url(#b3d3bb3e05)"><path style=" stroke:none;fill-rule:nonzero;fill:#4339ca;fill-opacity:1;" d="M 124.097656 124.097656 L 250.902344 124.097656 L 250.902344 250.902344 L 124.097656 250.902344 Z M 124.097656 124.097656 "/></g></g><g clip-rule="nonzero" clip-path="url(#a211b33acf)"><g clip-rule="nonzero" clip-path="url(#54d3cfad88)"><path style=" stroke:none;fill-rule:nonzero;fill:#ffffff;fill-opacity:1;" d="M 151.6875 151.6875 L 223.3125 151.6875 L 223.3125 223.3125 L 151.6875 223.3125 Z M 151.6875 151.6875 "/></g></g></g></svg>